<?xml version="1.0" encoding="utf-8"?>
<!-- Generator: Adobe Illustrator 25.0.0, SVG Export Plug-In . SVG Version: 6.00 Build 0)  -->
<svg version="1.1" id="Layer_1" xmlns="http://www.w3.org/2000/svg" xmlns:xlink="http://www.w3.org/1999/xlink" x="0px" y="0px"
	 viewBox="0 0 439.2 298" style="enable-background:new 0 0 439.2 298;" xml:space="preserve">
<style type="text/css">
	.st0{fill:#ED1C24;}
	.st1{fill:#FFFFFF;}
</style>
<polygon class="st0" points="409,221.1 219.9,267 30.2,221.1 30.2,29.9 409,29.9 "/>
<path class="st1" d="M219.9,255.5L41.4,212.2V41.5h356.4v170.7L219.9,255.5z M46.4,208.2l173.4,42.1l172.9-42.1V46.5H46.4V208.2z"/>
<path class="st1" d="M111.8,129.6l17.8-46.1h8.8l17.9,46.1h-8.6l-3.5-9h-20.3l-3.4,9H111.8z M134,92l-7.8,21.7h15.5L134,92z"/>
<path class="st1" d="M279.7,177c1.9,0,3.5,1.6,3.5,3.5c0,1.9-1.6,3.5-3.5,3.5c-1.9,0-3.5-1.6-3.5-3.5c0,0,0,0,0,0
	c0-1.9,1.5-3.5,3.4-3.5C279.6,177,279.7,177,279.7,177z"/>
<path class="st1" d="M306.6,149.3c4.2,0.1,8.3,1.4,11.7,3.9l-2.3,3.5c-2.7-1.9-5.9-2.9-9.2-2.9c-8.3,0-13.8,5.5-13.9,12.9
	s5.6,12.9,13.9,12.9c3.3,0,6.5-1,9.2-2.9l2.4,3.5c-3.4,2.5-7.5,3.9-11.8,3.9c-10.2-0.1-18.7-6.2-18.7-17.4S296.4,149.4,306.6,149.3z
	"/>
<path class="st1" d="M355.3,183.2h-5v-6.6c-2.7,4.7-7.8,7.6-13.2,7.4c-10.1,0-16.5-7.8-16.5-17.4s6.5-17.3,16.5-17.3
	c5.4-0.2,10.5,2.6,13.2,7.3V150h5L355.3,183.2z M337.5,179.5c7.1-0.2,12.7-6.1,12.5-13.2c-0.2-6.8-5.7-12.3-12.5-12.5
	c-7.5,0-12,5.7-12,12.9S330,179.5,337.5,179.5z"/>
<path class="st1" d="M191.8,129.5h-8.1V124c-2.1,4.3-6,6.3-10.7,6.3c-8.3,0-13.4-6-13.4-15.6V96.2h8.1v18.4c0,5.4,3.1,8.6,7.5,8.6
	c3.8,0,8.6-3.1,8.6-12.5V96.2h8.1L191.8,129.5z"/>
<polygon class="st1" points="225.1,96.2 225.1,102.4 215,102.4 215,129.5 206.9,129.5 206.9,102.4 196.8,102.4 196.8,96.2 
	207.3,96.2 207.3,83.4 215,83.4 215,96.2 "/>
<path class="st1" d="M244.5,95.5c9.8,0,18.1,7.8,18.1,17.4s-8.4,17.4-18.1,17.4s-18-7.7-18-17.4S234.9,95.5,244.5,95.5z
	 M244.5,123.3c5.7,0,9.9-4.6,9.9-10.5s-4.3-10.5-9.9-10.5s-9.9,4.6-9.9,10.5S238.9,123.3,244.5,123.3z"/>
<path class="st1" d="M119.4,137.2v6.8h-13.9v39.3h-8.4V144H83.3v-6.8L119.4,137.2z"/>
<path class="st1" d="M127.4,157.3c1.1-5.7,4.8-8.1,8.3-8.1c0.9,0,1.9,0.2,2.8,0.5v8c-1.2-0.4-2.5-0.6-3.8-0.7c-3,0-7.2,1.6-7.2,10.9
	v15.4h-8.1V150h8L127.4,157.3z"/>
<path class="st1" d="M175.5,150v33.3h-8v-5c-2.6,3.7-6.8,5.9-11.4,5.7c-9.8,0-16.2-7.8-16.2-17.5c0-9.4,6.1-17.2,16.3-17.2
	c4.5-0.1,8.7,2,11.2,5.7V150H175.5z M157.8,177.3c5.5,0,9.9-3.8,9.9-10.3s-4.1-10.9-10.1-10.9s-9.5,4.8-9.5,10.5
	C148.1,172.5,151.8,177.2,157.8,177.3L157.8,177.3z"/>
<path class="st1" d="M215.3,137.1v46.1h-8v-5c-2.3,3.7-6.3,5.9-10.7,5.7c-9.7,0-16.1-7.8-16.1-17.5c0-9.4,6.1-17.2,16.2-17.2
	c4.4,0,7.8,1.9,10.6,5.7v-17.8H215.3z M198.3,177.2c5.5,0,9.1-3.8,9.1-10.3s-3.3-10.9-9.3-10.9s-9.5,4.8-9.5,10.5
	C188.6,172.5,192.3,177.2,198.3,177.2L198.3,177.2z"/>
<path class="st1" d="M252.3,177.6c-3.5,4.2-8.7,6.6-14.2,6.4c-11.3,0-18-7.8-18-17.2c0-9.8,7.2-17.5,17.1-17.5
	c8.5,0,16.4,5.7,16.4,18.5h-26c0,5.3,4,9.4,10.8,9.4c3.6,0,7-1.5,9.5-4.1L252.3,177.6z M228.1,162.3h17.8c-1.2-5.1-5.4-6.6-8.7-6.6
	C233.1,155.5,229.3,158.2,228.1,162.3L228.1,162.3z"/>
<path class="st1" d="M266.6,157.3c1.1-5.7,4.8-8.1,8.4-8.1c0.9,0,1.9,0.2,2.8,0.5v8c-1.2-0.4-2.5-0.6-3.8-0.7c-3,0-7.2,1.6-7.2,10.9
	v15.4h-8.1V150h8L266.6,157.3z"/>
<path class="st1" d="M103.1,129.6H83.3c0.7-1.9,2-5,2.2-5.8c0-0.2-0.1-0.4-0.2-0.6l-13.4-12.6l4.7-2.9c0.3-0.2,0.4-0.4,0.4-0.7
	c0-0.1-3.5-8.9-3.5-8.9l9.3,2.1c0.2,0,0.5-0.1,0.6-0.3l2.2-5.2l7,8.1c0.2,0.2,0.5,0.3,0.8,0.3c0.6,0,0.5-0.4,0.4-1.1
	c0-0.1,0-0.2,0-0.3L90,83.5c0,0,8.6,4.7,8.7,4.7c0.2,0,0.4-0.1,0.6-0.3l6.2-11l6.2,11c0.1,0.2,0.3,0.3,0.6,0.3
	c0.1,0,8.7-4.7,8.7-4.7L103.1,129.6z"/>
<path class="st1" d="M100.7,127.2L100.7,127.2z"/>
</svg>
