<svg width="64" height="64" viewBox="0 0 64 64" fill="none" xmlns="http://www.w3.org/2000/svg">
  <!-- Ship Hull -->
  <path d="M12 44L32 24L52 44H12Z" fill="#1a237e" class="ship-hull"/>
  
  <!-- Ship Cabin -->
  <path d="M28 36L32 32L36 36H28Z" fill="#1a237e" class="ship-cabin"/>
  
  <!-- Waves -->
  <path d="M8 48C12 46 16 50 20 48C24 46 28 50 32 48C36 46 40 50 44 48C48 46 52 50 56 48" 
        stroke="#1a237e" 
        stroke-width="2"
        stroke-linecap="round"
        class="wave-line"/>
  
  <!-- Ship Details -->
  <path d="M30 34L32 30L34 34" 
        stroke="white" 
        stroke-width="1.5"
        stroke-linecap="round"
        fill="none"/>
  
  <!-- Windows -->
  <circle cx="29" cy="35" r="1" fill="white"/>
  <circle cx="32" cy="35" r="1" fill="white"/>
  <circle cx="35" cy="35" r="1" fill="white"/>

  <!-- Flag -->
  <path d="M32 24L32 20L36 22L32 24Z" fill="#1a237e" class="flag"/>

  <style>
    .ship-hull, .ship-cabin, .flag {
      filter: drop-shadow(0 2px 4px rgba(0,0,0,0.2));
    }
    .wave-line {
      animation: wave 2s ease-in-out infinite;
    }
    @keyframes wave {
      0%, 100% {
        transform: translateY(0);
      }
      50% {
        transform: translateY(2px);
      }
    }
  </style>
</svg>